<svg width="48" height="48" viewBox="0 0 48 48" fill="none" xmlns="http://www.w3.org/2000/svg">
<g clip-path="url(#clip0_10_198)">
<mask id="mask0_10_198" style="mask-type:luminance" maskUnits="userSpaceOnUse" x="0" y="0" width="48" height="48">
<path d="M48 0H0V48H48V0Z" fill="white"/>
</mask>
<g mask="url(#mask0_10_198)">
<path d="M24 48C37.2548 48 48 37.2548 48 24C48 10.7452 37.2548 0 24 0C10.7452 0 0 10.7452 0 24C0 37.2548 10.7452 48 24 48Z" fill="#3475A3"/>
<path fill-rule="evenodd" clip-rule="evenodd" d="M43.1845 38.4227C43.9037 37.4677 44.5534 36.4573 45.1253 35.3991C45.0256 35.3929 44.926 35.3898 44.8271 35.3898C43.4656 35.3898 42.0016 35.9695 40.4157 37.3323C38.5303 38.9526 36.5232 39.8644 34.4136 39.8644C32.3039 39.8644 30.2968 38.9526 28.4114 37.3323C26.8256 35.9695 25.3615 35.3898 24 35.3898C22.6385 35.3898 21.1744 35.9695 19.5886 37.3323C17.7032 38.9526 15.6961 39.8644 13.5864 39.8644C11.4768 39.8644 9.46971 38.9526 7.58428 37.3323C5.99849 35.9695 4.53441 35.3898 3.17288 35.3898C3.07399 35.3898 2.97456 35.3929 2.87459 35.3991C3.44681 36.4573 4.09623 37.4677 4.81529 38.4227C6.32953 38.7657 7.78536 39.5751 9.17504 40.7695C10.7608 42.1322 12.2249 42.7119 13.5864 42.7119C14.948 42.7119 16.4121 42.1322 17.9978 40.7695C19.8833 39.1491 21.8904 38.2373 24 38.2373C26.1096 38.2373 28.1167 39.1491 30.0022 40.7695C31.5879 42.1322 33.052 42.7119 34.4136 42.7119C35.7751 42.7119 37.2392 42.1322 38.825 40.7695C40.2146 39.5751 41.6705 38.7657 43.1845 38.4227ZM44.8271 32.9492C45.2974 32.9492 45.7623 32.9944 46.222 33.0827C46.5494 32.2819 46.835 31.4594 47.0758 30.6181C46.2956 30.2638 45.5471 30.1017 44.8271 30.1017C43.4656 30.1017 42.0016 30.6814 40.4157 32.0442C38.5303 33.6644 36.5232 34.5763 34.4136 34.5763C32.3039 34.5763 30.2968 33.6644 28.4114 32.0442C26.8256 30.6814 25.3615 30.1017 24 30.1017C22.6385 30.1017 21.1744 30.6814 19.5886 32.0442C17.7032 33.6644 15.6961 34.5763 13.5864 34.5763C11.4768 34.5763 9.46971 33.6644 7.58428 32.0442C5.99849 30.6814 4.53441 30.1017 3.17288 30.1017C2.45289 30.1017 1.70424 30.2638 0.924077 30.6181C1.16493 31.4594 1.45056 32.2819 1.77821 33.0827C2.23787 32.9944 2.70283 32.9492 3.17288 32.9492C5.28252 32.9492 7.28961 33.861 9.17504 35.4812C10.7608 36.844 12.2249 37.4237 13.5864 37.4237C14.948 37.4237 16.4121 36.844 17.9978 35.4812C19.8833 33.861 21.8904 32.9492 24 32.9492C26.1096 32.9492 28.1167 33.861 30.0022 35.4812C31.5879 36.844 33.052 37.4237 34.4136 37.4237C35.7751 37.4237 37.2392 36.844 38.825 35.4812C40.7105 33.861 42.7176 32.9492 44.8271 32.9492ZM0.367123 28.2049C1.28009 27.8486 2.21594 27.661 3.17288 27.661C5.28252 27.661 7.28961 28.5729 9.17504 30.1931C10.7608 31.5559 12.2249 32.1356 13.5864 32.1356C14.948 32.1356 16.4121 31.5559 17.9978 30.1931C19.8833 28.5729 21.8904 27.661 24 27.661C26.1096 27.661 28.1167 28.5729 30.0022 30.1931C31.5879 31.5559 33.052 32.1356 34.4136 32.1356C35.7751 32.1356 37.2392 31.5559 38.825 30.1931C40.7105 28.5729 42.7176 27.661 44.8271 27.661C45.7839 27.661 46.7199 27.8486 47.6327 28.2049C47.8743 26.8396 48 25.4345 48 24C48 10.7452 37.2548 0 24 0C10.7452 0 0 10.7452 0 24C0 25.4345 0.125854 26.8396 0.367123 28.2049ZM35.4973 45.072C35.1392 45.1253 34.7779 45.1525 34.4136 45.1525C32.3039 45.1525 30.2968 44.2405 28.4114 42.6203C26.8256 41.2576 25.3615 40.678 24 40.678C22.6385 40.678 21.1744 41.2576 19.5886 42.6203C17.7032 44.2405 15.6961 45.1525 13.5864 45.1525C13.2221 45.1525 12.8608 45.1253 12.5027 45.072C15.9169 46.9387 19.8345 48 24 48C28.1655 48 32.0831 46.9387 35.4973 45.072Z" fill="#FBC402"/>
<path d="M24.8327 30.6146L23.5038 31.3749C23.4524 31.4049 23.3943 31.4217 23.3349 31.4241C23.2754 31.4264 23.2162 31.4141 23.1626 31.3883C23.1089 31.3625 23.0625 31.3239 23.0273 31.276C22.992 31.2281 22.9691 31.1722 22.9606 31.1134C22.8636 30.479 23.2904 29.5977 24.0227 29.5347C24.3623 29.5056 24.6985 29.5105 25.0316 29.5493C25.3355 29.5815 25.4568 29.4475 25.3953 29.1473C25.3824 29.0827 25.3824 29.0149 25.3953 28.9439C25.4438 28.6953 25.342 28.5565 25.0898 28.5274C22.6098 28.2659 20.8508 29.3862 19.8129 31.8882C19.8085 31.9013 19.8004 31.9128 19.7896 31.9215C19.7788 31.9301 19.7658 31.9355 19.752 31.9371C19.7383 31.9386 19.7244 31.9362 19.712 31.9301C19.6996 31.924 19.6892 31.9145 19.682 31.9028L18.7701 30.5468C18.7553 30.5249 18.7466 30.4997 18.7449 30.4741C18.7432 30.4485 18.7486 30.4234 18.7604 30.4015C20.0603 27.9124 22.2395 26.642 25.2983 26.5904C25.3597 26.5904 25.4018 26.563 25.4244 26.5081C25.557 26.2175 25.5877 25.9302 25.5166 25.6461C25.5101 25.6203 25.4939 25.6074 25.4681 25.6074C22.4966 25.5686 20.1621 26.6065 18.4646 28.7211C18.3061 28.9181 18.1817 28.8987 18.0911 28.663C17.7355 27.7397 17.5398 26.8083 17.5043 25.8688C17.4978 25.7074 17.5625 25.5831 17.6982 25.496C18.5616 24.9374 19.4588 24.5726 20.3901 24.4015C21.9663 24.1158 24.1004 23.9996 24.9879 22.4935C25.0817 22.3321 25.0881 22.1691 25.0073 22.0044C24.975 21.9334 24.9249 21.885 24.857 21.8592C24.7244 21.8043 24.6048 21.8253 24.4981 21.9221C23.8287 22.5484 23.0382 22.9052 22.1264 22.9923C20.5776 23.1408 19.1598 23.5202 17.8729 24.1303C17.5721 24.2724 17.4493 24.1788 17.5043 23.8495L17.8826 21.6316C17.9214 21.3959 18.0588 21.2651 18.2948 21.2393C20.196 21.0262 21.8742 20.7792 23.2031 19.278C23.368 19.0876 23.4488 18.8664 23.4456 18.6146L23.4408 18.4306C23.4393 18.3996 23.4298 18.3696 23.4133 18.3433C23.3967 18.3171 23.3736 18.2957 23.3462 18.281C23.3188 18.2664 23.2882 18.259 23.2571 18.2598C23.2261 18.2606 23.1958 18.2693 23.1692 18.2853L21.2921 19.4427C21.1111 19.5557 20.9996 19.5089 20.9575 19.3023C20.7829 18.479 20.3561 17.7623 19.6771 17.1522C19.4895 16.9843 19.5057 16.8373 19.7256 16.7114C20.8637 16.069 22.0666 15.5283 23.3341 15.0892C23.3697 15.0768 23.4024 15.0572 23.4301 15.0318C23.4577 15.0063 23.4798 14.9755 23.4949 14.9413C23.5099 14.9072 23.5176 14.8704 23.5175 14.8333C23.5174 14.7962 23.5094 14.7597 23.4941 14.726L23.4116 14.5517C23.3998 14.527 23.3812 14.5062 23.3581 14.4917C23.3349 14.4771 23.3081 14.4694 23.2807 14.4693C22.6405 14.4855 22.031 14.613 21.4522 14.8519C21.2 14.9584 21.0933 14.8761 21.1321 14.6049C21.2194 14.0335 21.0222 13.5654 20.5404 13.2006C19.8614 12.6808 19.9406 12.3483 20.7781 12.203C21.2889 12.1126 21.8014 11.9318 22.3155 11.6606C22.3872 11.6221 22.45 11.5692 22.5003 11.5053C22.5506 11.4414 22.587 11.3678 22.6076 11.2892C22.628 11.2106 22.632 11.1286 22.6193 11.0483C22.6067 10.9681 22.5775 10.8913 22.5338 10.8228C22.3818 10.5904 22.204 10.3725 22.0003 10.1691C21.4312 9.6009 21.5492 9.31518 22.3543 9.31193H23.6105C23.6572 9.3114 23.7033 9.30135 23.746 9.28247C23.7886 9.26356 23.8268 9.23622 23.8582 9.20209C23.8896 9.16801 23.9136 9.1279 23.9285 9.08433C23.9435 9.04073 23.9492 8.99456 23.9452 8.94875L23.8385 7.53471C23.8344 7.47645 23.8454 7.41816 23.8704 7.3654C23.8955 7.31268 23.9339 7.26733 23.9817 7.23369C24.0295 7.20009 24.0852 7.17938 24.1433 7.17357C24.2015 7.16775 24.2602 7.17706 24.3137 7.20058L25.987 7.9318C26.1972 8.0254 26.3718 7.98021 26.5108 7.79622C26.721 7.51856 26.8455 7.20542 26.8843 6.85673C26.9845 5.9754 27.3305 5.86561 27.9222 6.52744C28.2391 6.87934 28.5285 7.24414 28.7904 7.62188C28.8277 7.67553 28.8776 7.7193 28.9357 7.74936C28.9938 7.77942 29.0584 7.79488 29.1239 7.79443C29.1893 7.79395 29.2537 7.77755 29.3114 7.74664C29.369 7.71572 29.4183 7.67122 29.4548 7.61704L30.1872 6.54196C30.5946 5.94473 30.8985 5.99151 31.099 6.68242C31.196 7.00845 31.3156 7.32163 31.4579 7.62188C31.4848 7.68001 31.5237 7.73183 31.572 7.77393C31.6204 7.81608 31.677 7.84752 31.7384 7.86627C31.7997 7.88498 31.8644 7.8906 31.928 7.88271C31.9917 7.87481 32.0529 7.85358 32.1078 7.82043C32.6057 7.51693 33.1425 7.31195 33.718 7.20542C33.758 7.19814 33.7992 7.1998 33.8383 7.21022C33.8775 7.22059 33.9139 7.2395 33.9446 7.26554C33.9753 7.29157 33.9997 7.32403 34.0158 7.36056C34.032 7.39709 34.0396 7.43675 34.0381 7.47658C34.022 7.83816 33.9185 8.17717 33.7277 8.49353C33.6583 8.6036 33.626 8.73426 33.6356 8.86642C33.7067 10.0803 34.3938 10.747 35.6969 10.8664C35.7625 10.8723 35.8256 10.8946 35.8803 10.9312C35.9351 10.9678 35.9797 11.0176 36.0102 11.076C36.0406 11.1343 36.0558 11.1994 36.0545 11.2652C36.0531 11.3309 36.0352 11.3953 36.0024 11.4524C35.6532 12.0528 35.1343 12.7115 35.1003 13.4185C34.9742 15.8947 35.9199 17.5557 37.9376 18.4015C38.1316 18.4822 38.2076 18.6259 38.1655 18.8325C37.7484 20.8519 35.2992 21.4136 34.2467 19.525C33.33 17.8882 32.3697 16.7938 30.4345 16.4839C29.8428 16.3902 29.3627 16.0819 28.9941 15.5589C28.965 15.5178 28.925 15.4856 28.8787 15.4659C28.8323 15.4462 28.7814 15.4397 28.7315 15.4472C28.6817 15.4548 28.635 15.476 28.5965 15.5086C28.5581 15.5411 28.5295 15.5837 28.5139 15.6316C28.113 16.8358 28.4234 17.8543 29.4451 18.6873C30.7304 19.7333 32.4279 21.0698 33.1166 22.5856C34.4941 25.6235 33.6922 28.203 30.711 30.324C28.5188 31.8834 26.2101 34.0674 27.2917 36.9827C27.8252 38.4193 28.8146 39.2264 30.2599 39.4039C31.9769 39.6122 33.2815 38.4161 32.8935 36.5952C32.8532 36.4038 32.7558 36.2288 32.6139 36.0932C32.472 35.9576 32.2922 35.8676 32.0981 35.8349C31.39 35.7155 31.0392 35.9721 31.0457 36.6049C31.0489 36.789 31.1362 36.9132 31.3076 36.9778C31.5792 37.0746 31.854 37.0294 32.1321 36.8422C32.2193 36.7841 32.2614 36.8083 32.2582 36.9149L32.2533 37.1666C32.2517 37.2017 32.2423 37.2363 32.2255 37.2681C32.2088 37.2998 32.1852 37.328 32.1563 37.3507C30.9777 38.2562 29.4985 37.2296 30.0174 35.9318C30.7983 33.9609 32.9372 34.0674 34.1933 35.4814C35.6435 37.1134 35.1294 39.4717 33.8005 41.1088C33.3882 41.6172 33.0439 42.3193 32.2824 42.3291C31.4547 42.3389 30.7013 42.6098 30.0223 43.1427C29.913 43.2285 29.7771 43.2736 29.638 43.27C29.499 43.2663 29.3656 43.2147 29.2608 43.1231C28.5462 42.4999 27.6732 42.2563 26.6418 42.3921C26.451 42.4145 26.299 42.3498 26.1859 42.1981C25.4244 41.1718 25.6184 39.8931 23.8191 40.0335C23.7653 40.0374 23.7114 40.0295 23.6612 40.0104C23.6109 39.9913 23.5656 39.9615 23.5285 39.923C23.4914 39.8845 23.4634 39.8385 23.4465 39.7881C23.4297 39.7377 23.4244 39.6842 23.431 39.6316C23.6008 38.3144 24.1925 36.7066 22.3543 36.203C22.1441 36.1449 22.107 36.0286 22.2428 35.8543C22.8733 35.0472 22.9638 34.2433 22.5144 33.4427C22.4109 33.2555 22.4594 33.1247 22.6599 33.0504C23.6493 32.6727 24.8182 31.9076 25.0946 30.8132C25.1625 30.5387 25.0752 30.4726 24.8327 30.6146ZM29.1202 28.1981C29.028 29.0989 27.8204 29.3749 27.0831 29.3507C26.9862 29.3466 26.8907 29.3748 26.8117 29.431C26.7326 29.4871 26.6746 29.5679 26.6466 29.6606C26.2392 31.0488 25.848 32.4677 25.4729 33.9173C25.1657 35.1182 25.2142 36.2902 25.6184 37.433C26.5108 39.9609 28.2957 41.0701 30.9729 40.7601C31.0052 40.7569 31.0198 40.739 31.0165 40.7069L31.0117 40.5856C31.002 40.4274 30.9179 40.3531 30.7595 40.3628C29.4112 40.45 28.2665 39.998 27.3257 39.0068C25.7704 37.3668 25.439 35.4475 26.3314 33.249C27.0347 31.5202 28.3248 30.3337 29.7749 29.2393C31.8604 27.6703 33.0099 25.6025 31.5501 23.0359C30.3472 20.9149 27.7233 19.7575 27.0055 17.4088C26.4688 15.6396 27.0864 14.1981 28.8582 13.0844C29.4565 12.7098 29.6699 12.8648 29.4985 13.5492C29.2317 14.6098 30.2793 15.2296 31.1669 15.3555C32.9857 15.6122 34.2079 17.5638 35.0906 19.0262C35.1867 19.1844 35.3369 19.3025 35.5135 19.3586C35.69 19.4147 35.881 19.405 36.0509 19.3313L36.2255 19.2538C36.4777 19.1473 36.5036 19.0004 36.3031 18.8132C34.6202 17.2539 33.1942 14.5178 34.203 12.2611C34.313 12.0125 34.2434 11.8301 33.9945 11.7139C32.6219 11.0892 32.1466 9.44755 30.4345 9.63157C28.2164 9.86722 26.5836 10.9955 25.536 13.0165C24.0519 15.8834 24.629 19.1037 26.021 22.048C26.2053 22.4354 26.4979 22.55 26.8988 22.3918L28.3102 21.8398C28.6239 21.7139 28.7661 21.8204 28.737 22.1594C28.7306 22.224 28.716 22.2885 28.6934 22.3531C28.5867 22.6437 28.3991 22.8648 28.1308 23.0165C27.7621 23.2232 27.3693 23.3668 26.9522 23.4475C26.7582 23.4831 26.6434 23.5977 26.6078 23.7914C26.5529 24.1142 26.6078 24.4193 26.7727 24.7066C26.8536 24.8455 26.9748 24.9132 27.1365 24.91C27.6765 24.8971 28.1922 24.7905 28.6837 24.5904C28.8486 24.5226 28.9876 24.5581 29.1008 24.6969C29.1687 24.7841 29.1962 24.8842 29.1832 24.9972C29.1105 25.7478 28.0095 26.0867 27.3984 26.1061C27.1074 26.1158 26.957 26.2659 26.9474 26.5565L26.8892 27.8834C26.8872 27.9375 26.8976 27.9914 26.9195 28.0409C26.9415 28.0904 26.9743 28.1341 27.0156 28.1688C27.0568 28.2034 27.1054 28.228 27.1575 28.2406C27.2095 28.2533 27.2638 28.2537 27.3159 28.2417L28.7904 27.9027C29.0361 27.8446 29.146 27.9431 29.1202 28.1981Z" fill="white"/>
<path d="M24.8327 30.6146L23.5038 31.3749C23.4524 31.4049 23.3943 31.4217 23.3349 31.4241C23.2754 31.4264 23.2162 31.4141 23.1626 31.3883C23.1089 31.3625 23.0625 31.3239 23.0273 31.276C22.992 31.2281 22.9691 31.1722 22.9606 31.1134C22.8636 30.479 23.2904 29.5977 24.0227 29.5347C24.3623 29.5056 24.6985 29.5105 25.0316 29.5493C25.3355 29.5815 25.4568 29.4475 25.3953 29.1473C25.3824 29.0827 25.3824 29.0149 25.3953 28.9439C25.4438 28.6953 25.342 28.5565 25.0898 28.5274C22.6098 28.2659 20.8508 29.3862 19.8129 31.8882C19.8085 31.9013 19.8004 31.9128 19.7896 31.9215C19.7788 31.9301 19.7658 31.9355 19.752 31.9371C19.7383 31.9386 19.7244 31.9362 19.712 31.9301C19.6996 31.924 19.6892 31.9145 19.682 31.9028L18.7701 30.5468C18.7553 30.5249 18.7466 30.4997 18.7449 30.4741C18.7432 30.4485 18.7486 30.4234 18.7604 30.4015C20.0603 27.9124 22.2395 26.642 25.2983 26.5904C25.3597 26.5904 25.4018 26.563 25.4244 26.5081C25.557 26.2175 25.5877 25.9302 25.5166 25.6461C25.5101 25.6203 25.4939 25.6074 25.4681 25.6074C22.4966 25.5686 20.1621 26.6065 18.4646 28.7211C18.3061 28.9181 18.1817 28.8987 18.0911 28.663C17.7355 27.7397 17.5398 26.8083 17.5043 25.8688C17.4978 25.7074 17.5625 25.5831 17.6982 25.496C18.5616 24.9374 19.4588 24.5726 20.3901 24.4015C21.9663 24.1158 24.1004 23.9996 24.9879 22.4935C25.0817 22.3321 25.0881 22.1691 25.0073 22.0044C24.975 21.9334 24.9249 21.885 24.857 21.8592C24.7244 21.8043 24.6048 21.8253 24.4981 21.9221C23.8287 22.5484 23.0382 22.9052 22.1264 22.9923C20.5776 23.1408 19.1598 23.5202 17.8729 24.1303C17.5721 24.2724 17.4493 24.1788 17.5043 23.8495L17.8826 21.6316C17.9214 21.3959 18.0588 21.2651 18.2948 21.2393C20.196 21.0262 21.8742 20.7792 23.2031 19.278C23.368 19.0876 23.4488 18.8664 23.4456 18.6146L23.4408 18.4306C23.4393 18.3996 23.4298 18.3696 23.4133 18.3433C23.3967 18.3171 23.3736 18.2957 23.3462 18.281C23.3188 18.2664 23.2882 18.259 23.2571 18.2598C23.2261 18.2606 23.1958 18.2693 23.1692 18.2853L21.2921 19.4427C21.1111 19.5557 20.9996 19.5089 20.9575 19.3023C20.7829 18.479 20.3561 17.7623 19.6771 17.1522C19.4895 16.9843 19.5057 16.8373 19.7256 16.7114C20.8637 16.069 22.0666 15.5283 23.3341 15.0892C23.3697 15.0768 23.4024 15.0572 23.4301 15.0318C23.4577 15.0063 23.4798 14.9755 23.4949 14.9413C23.5099 14.9072 23.5176 14.8704 23.5175 14.8333C23.5174 14.7962 23.5094 14.7597 23.4941 14.726L23.4116 14.5517C23.3998 14.527 23.3812 14.5062 23.3581 14.4917C23.3349 14.4771 23.3081 14.4694 23.2807 14.4693C22.6405 14.4855 22.031 14.613 21.4522 14.8519C21.2 14.9584 21.0933 14.8761 21.1321 14.6049C21.2194 14.0335 21.0222 13.5654 20.5404 13.2006C19.8614 12.6808 19.9406 12.3483 20.7781 12.203C21.2889 12.1126 21.8014 11.9318 22.3155 11.6606C22.3872 11.6221 22.45 11.5692 22.5003 11.5053C22.5506 11.4414 22.587 11.3678 22.6076 11.2892C22.628 11.2106 22.632 11.1286 22.6193 11.0483C22.6067 10.9681 22.5775 10.8913 22.5338 10.8228C22.3818 10.5904 22.204 10.3725 22.0003 10.1691C21.4312 9.6009 21.5492 9.31518 22.3543 9.31193H23.6105C23.6572 9.3114 23.7033 9.30135 23.746 9.28247C23.7886 9.26356 23.8268 9.23622 23.8582 9.20209C23.8896 9.16801 23.9136 9.1279 23.9285 9.08433C23.9435 9.04073 23.9492 8.99456 23.9452 8.94875L23.8385 7.53471C23.8344 7.47645 23.8454 7.41816 23.8704 7.3654C23.8955 7.31268 23.9339 7.26733 23.9817 7.23369C24.0295 7.20009 24.0852 7.17938 24.1433 7.17357C24.2015 7.16775 24.2602 7.17706 24.3137 7.20058L25.987 7.9318C26.1972 8.0254 26.3718 7.98021 26.5108 7.79622C26.721 7.51856 26.8455 7.20542 26.8843 6.85673C26.9845 5.9754 27.3305 5.86561 27.9222 6.52744C28.2391 6.87934 28.5285 7.24414 28.7904 7.62188C28.8277 7.67553 28.8776 7.7193 28.9357 7.74936C28.9938 7.77942 29.0584 7.79488 29.1239 7.79443C29.1893 7.79395 29.2537 7.77755 29.3114 7.74664C29.369 7.71572 29.4183 7.67122 29.4548 7.61704L30.1872 6.54196C30.5946 5.94473 30.8985 5.99151 31.099 6.68242C31.196 7.00845 31.3156 7.32163 31.4579 7.62188C31.4848 7.68001 31.5237 7.73183 31.572 7.77393C31.6204 7.81608 31.677 7.84752 31.7384 7.86627C31.7997 7.88498 31.8644 7.8906 31.928 7.88271C31.9917 7.87481 32.0529 7.85358 32.1078 7.82043C32.6057 7.51693 33.1425 7.31195 33.718 7.20542C33.758 7.19814 33.7992 7.1998 33.8383 7.21022C33.8775 7.22059 33.9139 7.2395 33.9446 7.26554C33.9753 7.29157 33.9997 7.32403 34.0158 7.36056C34.032 7.39709 34.0396 7.43675 34.0381 7.47658C34.022 7.83816 33.9185 8.17717 33.7277 8.49353C33.6583 8.6036 33.626 8.73426 33.6356 8.86642C33.7067 10.0803 34.3938 10.747 35.6969 10.8664C35.7625 10.8723 35.8256 10.8946 35.8803 10.9312C35.9351 10.9678 35.9797 11.0176 36.0102 11.076C36.0406 11.1343 36.0558 11.1994 36.0545 11.2652C36.0531 11.3309 36.0352 11.3953 36.0024 11.4524C35.6532 12.0528 35.1343 12.7115 35.1003 13.4185C34.9742 15.8947 35.9199 17.5557 37.9376 18.4015C38.1316 18.4822 38.2076 18.6259 38.1655 18.8325C37.7484 20.8519 35.2992 21.4136 34.2467 19.525C33.33 17.8882 32.3697 16.7938 30.4345 16.4839C29.8428 16.3902 29.3627 16.0819 28.9941 15.5589C28.965 15.5178 28.925 15.4856 28.8787 15.4659C28.8323 15.4462 28.7814 15.4397 28.7315 15.4472C28.6817 15.4548 28.635 15.476 28.5965 15.5086C28.5581 15.5411 28.5295 15.5837 28.5139 15.6316C28.113 16.8358 28.4234 17.8543 29.4451 18.6873C30.7304 19.7333 32.4279 21.0698 33.1166 22.5856C34.4941 25.6235 33.6922 28.203 30.711 30.324C28.5188 31.8834 26.2101 34.0674 27.2917 36.9827C27.8252 38.4193 28.8146 39.2264 30.2599 39.4039C31.9769 39.6122 33.2815 38.4161 32.8935 36.5952C32.8532 36.4038 32.7558 36.2288 32.6139 36.0932C32.472 35.9576 32.2922 35.8676 32.0981 35.8349C31.39 35.7155 31.0392 35.9721 31.0457 36.6049C31.0489 36.789 31.1362 36.9132 31.3076 36.9778C31.5792 37.0746 31.854 37.0294 32.1321 36.8422C32.2193 36.7841 32.2614 36.8083 32.2582 36.9149L32.2533 37.1666C32.2517 37.2017 32.2423 37.2363 32.2255 37.2681C32.2088 37.2998 32.1852 37.328 32.1563 37.3507C30.9777 38.2562 29.4985 37.2296 30.0174 35.9318C30.7983 33.9609 32.9372 34.0674 34.1933 35.4814C35.6435 37.1134 35.1294 39.4717 33.8005 41.1088C33.3882 41.6172 33.0439 42.3193 32.2824 42.3291C31.4547 42.3389 30.7013 42.6098 30.0223 43.1427C29.913 43.2285 29.7771 43.2736 29.638 43.27C29.499 43.2663 29.3656 43.2147 29.2608 43.1231C28.5462 42.4999 27.6732 42.2563 26.6418 42.3921C26.451 42.4145 26.299 42.3498 26.1859 42.1981C25.4244 41.1718 25.6184 39.8931 23.8191 40.0335C23.7653 40.0374 23.7114 40.0295 23.6612 40.0104C23.6109 39.9913 23.5656 39.9615 23.5285 39.923C23.4914 39.8845 23.4634 39.8385 23.4465 39.7881C23.4297 39.7377 23.4244 39.6842 23.431 39.6316C23.6008 38.3144 24.1925 36.7066 22.3543 36.203C22.1441 36.1449 22.107 36.0286 22.2428 35.8543C22.8733 35.0472 22.9638 34.2433 22.5144 33.4427C22.4109 33.2555 22.4594 33.1247 22.6599 33.0504C23.6493 32.6727 24.8182 31.9076 25.0946 30.8132C25.1625 30.5387 25.0752 30.4726 24.8327 30.6146ZM29.1202 28.1981C29.028 29.0989 27.8204 29.3749 27.0831 29.3507C26.9862 29.3466 26.8907 29.3748 26.8117 29.431C26.7326 29.4871 26.6746 29.5679 26.6466 29.6606C26.2392 31.0488 25.848 32.4677 25.4729 33.9173C25.1657 35.1182 25.2142 36.2902 25.6184 37.433C26.5108 39.9609 28.2957 41.0701 30.9729 40.7601C31.0052 40.7569 31.0198 40.739 31.0165 40.7069L31.0117 40.5856C31.002 40.4274 30.9179 40.3531 30.7595 40.3628C29.4112 40.45 28.2665 39.998 27.3257 39.0068C25.7704 37.3668 25.439 35.4475 26.3314 33.249C27.0347 31.5202 28.3248 30.3337 29.7749 29.2393C31.8604 27.6703 33.0099 25.6025 31.5501 23.0359C30.3472 20.9149 27.7233 19.7575 27.0055 17.4088C26.4688 15.6396 27.0864 14.1981 28.8582 13.0844C29.4565 12.7098 29.6699 12.8648 29.4985 13.5492C29.2317 14.6098 30.2793 15.2296 31.1669 15.3555C32.9857 15.6122 34.2079 17.5638 35.0906 19.0262C35.1867 19.1844 35.3369 19.3025 35.5135 19.3586C35.69 19.4147 35.881 19.405 36.0509 19.3313L36.2255 19.2538C36.4777 19.1473 36.5036 19.0004 36.3031 18.8132C34.6202 17.2539 33.1942 14.5178 34.203 12.2611C34.313 12.0125 34.2434 11.8301 33.9945 11.7139C32.6219 11.0892 32.1466 9.44755 30.4345 9.63157C28.2164 9.86722 26.5836 10.9955 25.536 13.0165C24.0519 15.8834 24.629 19.1037 26.021 22.048C26.2053 22.4354 26.4979 22.55 26.8988 22.3918L28.3102 21.8398C28.6239 21.7139 28.7661 21.8204 28.737 22.1594C28.7306 22.224 28.716 22.2885 28.6934 22.3531C28.5867 22.6437 28.3991 22.8648 28.1308 23.0165C27.7621 23.2232 27.3693 23.3668 26.9522 23.4475C26.7582 23.4831 26.6434 23.5977 26.6078 23.7914C26.5529 24.1142 26.6078 24.4193 26.7727 24.7066C26.8536 24.8455 26.9748 24.9132 27.1365 24.91C27.6765 24.8971 28.1922 24.7905 28.6837 24.5904C28.8486 24.5226 28.9876 24.5581 29.1008 24.6969C29.1687 24.7841 29.1962 24.8842 29.1832 24.9972C29.1105 25.7478 28.0095 26.0867 27.3984 26.1061C27.1074 26.1158 26.957 26.2659 26.9474 26.5565L26.8892 27.8834C26.8872 27.9375 26.8976 27.9914 26.9195 28.0409C26.9415 28.0904 26.9743 28.1341 27.0156 28.1688C27.0568 28.2034 27.1054 28.228 27.1575 28.2406C27.2095 28.2533 27.2638 28.2537 27.3159 28.2417L28.7904 27.9027C29.0361 27.8446 29.146 27.9431 29.1202 28.1981Z" fill="#3475A3"/>
<path d="M28.7904 27.9027L27.3159 28.2417C27.2638 28.2537 27.2095 28.2533 27.1575 28.2406C27.1054 28.228 27.0568 28.2034 27.0156 28.1688C26.9743 28.1341 26.9415 28.0904 26.9195 28.0409C26.8976 27.9914 26.8872 27.9375 26.8892 27.8834L26.9474 26.5565C26.957 26.2659 27.1074 26.1158 27.3984 26.1062C28.0095 26.0867 29.1105 25.7478 29.1832 24.9972C29.1962 24.8842 29.1687 24.7841 29.1008 24.6969C28.9876 24.5581 28.8486 24.5226 28.6837 24.5904C28.1922 24.7905 27.6765 24.8971 27.1365 24.91C26.9748 24.9132 26.8536 24.8454 26.7727 24.7066C26.6078 24.4193 26.5529 24.1142 26.6078 23.7914C26.6434 23.5977 26.7582 23.483 26.9522 23.4475C27.3693 23.3668 27.7621 23.2232 28.1308 23.0165C28.3991 22.8648 28.5867 22.6436 28.6934 22.3531C28.716 22.2885 28.7306 22.224 28.737 22.1594C28.7661 21.8204 28.6239 21.7139 28.3102 21.8398L26.8988 22.3918C26.4979 22.55 26.2053 22.4354 26.021 22.048C24.629 19.1037 24.0519 15.8834 25.536 13.0166C26.5836 10.9956 28.2164 9.86723 30.4345 9.63158C32.1466 9.44755 32.6219 11.0892 33.9945 11.7139C34.2434 11.8301 34.313 12.0125 34.203 12.2611C33.1942 14.5178 34.6202 17.2539 36.3031 18.8132C36.5036 19.0004 36.4777 19.1473 36.2255 19.2538L36.0509 19.3313C35.8809 19.405 35.69 19.4146 35.5135 19.3586C35.3369 19.3025 35.1867 19.1844 35.0906 19.0262C34.2079 17.5638 32.9857 15.6122 31.1669 15.3555C30.2793 15.2296 29.2317 14.6097 29.4985 13.5492C29.6699 12.8648 29.4565 12.7098 28.8582 13.0843C27.0864 14.1981 26.4688 15.6396 27.0055 17.4088C27.7233 19.7575 30.3472 20.9148 31.5501 23.0359C33.0099 25.6025 31.8604 27.6703 29.7749 29.2393C28.3248 30.3337 27.0347 31.5202 26.3314 33.249C25.439 35.4475 25.7704 37.3668 27.3257 39.0068C28.2665 39.998 29.4112 40.45 30.7595 40.3628C30.9179 40.3531 31.002 40.4274 31.0117 40.5856L31.0165 40.7069C31.0198 40.739 31.0052 40.7569 30.9729 40.7601C28.2957 41.0701 26.5108 39.9609 25.6184 37.433C25.2142 36.2902 25.1657 35.1182 25.4729 33.9173C25.848 32.4677 26.2392 31.0488 26.6466 29.6606C26.6746 29.5679 26.7326 29.4871 26.8117 29.4309C26.8907 29.3748 26.9862 29.3466 27.0831 29.3507C27.8204 29.3749 29.028 29.0989 29.1202 28.1981C29.146 27.9431 29.0361 27.8446 28.7904 27.9027ZM32.9857 13.4282C32.9857 13.1906 32.8911 12.9627 32.7229 12.7947C32.5546 12.6267 32.3264 12.5323 32.0884 12.5323C31.8504 12.5323 31.6222 12.6267 31.454 12.7947C31.2857 12.9627 31.1911 13.1906 31.1911 13.4282C31.1911 13.6658 31.2857 13.8937 31.454 14.0617C31.6222 14.2297 31.8504 14.3241 32.0884 14.3241C32.3264 14.3241 32.5546 14.2297 32.7229 14.0617C32.8911 13.8937 32.9857 13.6658 32.9857 13.4282Z" fill="#FFE486"/>
<path d="M32.0884 14.324C32.5839 14.324 32.9857 13.9229 32.9857 13.4281C32.9857 12.9333 32.5839 12.5323 32.0884 12.5323C31.5929 12.5323 31.1912 12.9333 31.1912 13.4281C31.1912 13.9229 31.5929 14.324 32.0884 14.324Z" fill="#3475A3"/>
<path d="M36.5699 26.2078C36.8592 26.2078 37.0937 25.9737 37.0937 25.6848C37.0937 25.396 36.8592 25.1618 36.5699 25.1618C36.2806 25.1618 36.0461 25.396 36.0461 25.6848C36.0461 25.9737 36.2806 26.2078 36.5699 26.2078Z" fill="#94BDDB"/>
<path d="M40.9688 27.094C41.4029 27.094 41.7547 26.7428 41.7547 26.3095C41.7547 25.8762 41.4029 25.525 40.9688 25.525C40.5349 25.525 40.1832 25.8762 40.1832 26.3095C40.1832 26.7428 40.5349 27.094 40.9688 27.094Z" fill="#81AFCE"/>
<path d="M43.0255 29.6219C43.296 29.6219 43.5153 29.4029 43.5153 29.1327C43.5153 28.8626 43.296 28.6437 43.0255 28.6437C42.755 28.6437 42.5353 28.8626 42.5353 29.1327C42.5353 29.4029 42.755 29.6219 43.0255 29.6219Z" fill="#4F97CA"/>
<path d="M37.0791 32.1449C37.5988 32.1449 38.0201 31.7242 38.0201 31.2054C38.0201 30.6866 37.5988 30.2659 37.0791 30.2659C36.5595 30.2659 36.1382 30.6866 36.1382 31.2054C36.1382 31.7242 36.5595 32.1449 37.0791 32.1449Z" fill="#5E8EB1"/>
<path d="M40.8814 32.692C40.9399 32.9693 41.1828 33.1531 41.424 33.1024C41.6652 33.0516 41.8133 32.7856 41.7547 32.5082C41.6961 32.2308 41.4533 32.0471 41.2121 32.0978C40.9709 32.1485 40.8228 32.4145 40.8814 32.692Z" fill="#4185B5"/>
<path d="M39.5721 36.4112C39.9497 36.4112 40.2559 36.1055 40.2559 35.7284C40.2559 35.3513 39.9497 35.0456 39.5721 35.0456C39.1944 35.0456 38.8882 35.3513 38.8882 35.7284C38.8882 36.1055 39.1944 36.4112 39.5721 36.4112Z" fill="#406E8F"/>
<path d="M36.5276 38.0477C36.4426 38.29 36.5664 38.5538 36.804 38.6369C37.0416 38.72 37.3032 38.5909 37.3882 38.3486C37.4731 38.1063 37.3494 37.8425 37.1118 37.7594C36.8741 37.6763 36.6126 37.8054 36.5276 38.0477Z" fill="#28648F"/>
<path d="M15.7844 17.5015C15.3554 15.8967 14.0989 15.214 12.6587 15.4735C11.3323 15.7125 10.6395 17.4624 10.3168 18.5237C10.4128 17.1181 10.1674 15.1634 8.58297 14.2506C6.16206 12.8559 4.62984 15.3534 4.47665 15.6778C4.32341 16.0021 4.32317 16.0642 4.7524 16.0346C4.88029 16.0257 5.99446 15.6938 7.08785 15.9031L7.60234 15.4008L7.8408 16.1086C8.74669 16.4446 9.47353 17.3056 9.60451 18.5967C8.86954 17.6403 7.73593 17.0246 6.45941 17.0246C4.23986 17.0246 2.44067 18.8772 2.44067 21.1623C2.44067 21.3463 2.44427 21.2143 2.44427 21.2143C2.4505 21.3009 2.5041 21.3757 2.5812 21.4054C2.65828 21.4348 2.74473 21.4137 2.80193 21.3514C2.80193 21.3514 2.84669 21.2776 3.0478 21.083C3.40212 20.7399 3.79187 20.4376 4.20939 20.1799L4.59128 19.4256L5.10646 19.7152C5.87955 19.3891 6.72272 19.2092 7.60592 19.2092C8.18839 19.2092 8.75385 19.2874 9.29324 19.4341C8.04951 19.347 6.17495 20.0332 5.43303 21.7084C4.5137 23.7842 5.41838 25.4318 5.54912 25.5608C5.65639 25.6665 5.78615 25.5841 5.82134 25.3999C5.89818 24.9973 6.10938 24.2446 6.4972 23.4005L6.34059 22.7311L6.77178 22.8479C7.31215 21.8393 8.10341 20.7804 9.22263 20.0671C8.35765 22.0841 7.45737 25.9775 8.54237 29.8983L10.1695 31.1186C10.1695 31.1186 8.69015 26.1796 10.096 20.4928C10.4015 20.9107 10.7903 21.5171 11.1147 22.2557L11.5248 22.3104L11.3416 22.8299C11.5662 23.4659 11.7278 24.1765 11.7503 24.9369C11.756 25.131 11.8667 25.2747 11.9232 25.1474C12.7889 23.1948 12.5166 21.1962 11.3031 20.0301C12.0683 20.2971 12.6936 20.9484 13.1808 21.6934L13.7618 21.8254L13.6536 22.5187C14.0613 23.3392 14.3115 24.1516 14.4008 24.6173C14.436 24.8008 14.5279 24.9204 14.6388 24.7116C15.2993 23.4674 15.3845 21.0799 14.1908 19.7729C13.2653 18.7598 11.6323 18.6931 10.6265 18.9739C11.2868 17.7989 13.0534 17.7115 13.0534 17.7115C13.0534 17.7115 13.3328 17.0304 13.3941 16.9331C13.4554 16.8358 13.7925 17.5965 13.7925 17.5965L15.5713 18.3656C15.5713 18.3656 15.7997 18.5308 15.8442 18.25C15.871 18.0805 15.8873 17.8192 15.7844 17.5015Z" fill="#3475A3"/>
</g>
</g>
<defs>
<clipPath id="clip0_10_198">
<rect width="48" height="48" fill="white"/>
</clipPath>
</defs>
</svg>
